<svg xmlns="http://www.w3.org/2000/svg" width="333" height="178" viewBox="0 0 333 178" fill="none">
    <path fill="white" d="M155 62.029V0H332.726V177.726H155V115.697H158.757V173.969H328.969V3.757H158.757V62.029H155Z"/>
    <path fill="white" d="M15.2127 109.668C10.3646 109.668 6.61268 108.18 3.95691 105.203C1.31897 102.226 0 97.9977 0 92.5168C0 87.0271 1.34125 82.7493 4.02375 79.6836C6.73299 76.6446 10.5651 75.1251 15.5202 75.1251C17.1422 75.1251 18.7508 75.2944 20.346 75.6331C21.9502 75.9718 23.2023 76.3772 24.1024 76.8496L22.5384 81.1407C20.043 80.1069 17.668 79.59 15.4133 79.59C8.63124 79.59 5.24024 83.9034 5.24024 92.5302C5.24024 96.6475 6.07351 99.8024 7.74005 101.995C9.40658 104.178 11.8529 105.27 15.0791 105.27C17.8239 105.27 20.6713 104.659 23.6212 103.438V107.943C21.3932 109.093 18.5904 109.668 15.2127 109.668ZM33.7407 79.6569C36.4767 76.6357 40.2108 75.1251 44.9431 75.1251C49.6753 75.1251 53.4139 76.6758 56.1588 79.7772C58.9126 82.8696 60.2895 87.0939 60.2895 92.45C60.2895 97.7972 58.9126 102.013 56.1588 105.096C53.4139 108.144 49.6441 109.668 44.8495 109.668C40.3133 109.712 36.6282 108.144 33.7942 104.962C30.9513 101.79 29.5655 97.5877 29.6368 92.3564C29.6368 86.9112 31.0047 82.678 33.7407 79.6569ZM44.8762 79.4162C38.2101 79.4162 34.877 83.7296 34.877 92.3564C34.877 96.6163 35.7281 99.8603 37.4303 102.088C39.1325 104.325 41.6367 105.444 44.9431 105.444C48.2583 105.444 50.7715 104.334 52.4826 102.115C54.1937 99.8959 55.0492 96.652 55.0492 92.3831C55.0492 88.1143 54.1937 84.8837 52.4826 82.6914C50.7715 80.5079 48.236 79.4162 44.8762 79.4162ZM96.9845 87.3301V109.053H91.9047V87.4905C91.9047 84.7456 91.2853 82.7137 90.0465 81.3947C88.8078 80.0757 86.8828 79.4162 84.2716 79.4162C80.7781 79.4162 78.2204 80.3564 76.5984 82.2369C74.9764 84.1173 74.1654 87.232 74.1654 91.5811V109.053H69.099V75.74H73.2297L74.0317 80.2985H74.2724C75.3061 78.6765 76.7588 77.4066 78.6303 76.4886C80.5018 75.5796 82.5872 75.1251 84.8865 75.1251C88.9415 75.1251 91.9715 76.1054 93.9767 78.0661C95.9819 80.0267 96.9845 83.1147 96.9845 87.3301ZM120.659 109.668C115.82 109.668 112.072 108.18 109.417 105.203C106.779 102.226 105.46 97.9977 105.46 92.5168C105.46 87.0271 106.801 82.7493 109.484 79.6836C112.184 76.6446 116.012 75.1251 120.967 75.1251C122.589 75.1251 124.202 75.2944 125.806 75.6331C127.401 75.9718 128.649 76.3772 129.549 76.8496L127.998 81.1407C125.494 80.1069 123.119 79.59 120.873 79.59C114.091 79.59 110.7 83.9034 110.7 92.5302C110.7 96.6475 111.533 99.8024 113.2 101.995C114.866 104.178 117.308 105.27 120.525 105.27C123.279 105.27 126.131 104.659 129.081 103.438V107.943C126.853 109.093 124.046 109.668 120.659 109.668ZM152.154 75.1251C153.687 75.1251 155.015 75.2365 156.138 75.4593L155.469 80.1648C154.141 79.8707 152.925 79.7237 151.82 79.7237C149.111 79.7237 146.802 80.8154 144.895 82.9988C142.979 85.1823 142.021 87.9093 142.021 91.18V109.053H136.955V75.74H141.139L141.714 81.8893H141.954C143.193 79.697 144.686 78.0215 146.433 76.863C148.179 75.7044 150.086 75.1251 152.154 75.1251ZM175.2 109.668C170.263 109.668 166.364 108.166 163.503 105.163C160.669 102.168 159.252 97.9888 159.252 92.6238C159.252 87.2677 160.567 83.0122 163.196 79.8574C165.878 76.7025 169.376 75.1251 173.69 75.1251C178.003 75.1251 181.376 76.4976 183.809 79.2424C186.242 81.9962 187.459 85.6145 187.459 90.0972V93.3055H164.479C164.595 97.2001 165.589 100.168 167.46 102.209C169.332 104.249 172.028 105.27 175.548 105.27C179.077 105.27 182.566 104.517 186.015 103.011V107.502C184.277 108.269 182.597 108.821 180.975 109.16C179.353 109.499 177.428 109.668 175.2 109.668ZM164.626 89.1882H182.058C182.058 86.0066 181.35 83.5737 179.933 81.8893C178.507 80.196 176.47 79.3494 173.824 79.3494C171.177 79.3494 169.051 80.2183 167.447 81.9561C165.834 83.6851 164.894 86.0958 164.626 89.1882ZM201.482 79.6569V99.2543C201.482 101.259 201.95 102.801 202.885 103.88C203.821 104.967 205.105 105.51 206.735 105.51C208.375 105.51 209.926 105.306 211.387 104.896V108.746C210.871 108.995 210.055 109.209 208.941 109.387C207.818 109.574 206.865 109.668 206.08 109.668C199.637 109.668 196.415 106.277 196.415 99.4949V79.6569H191.656V77.2239L196.415 75.1251L198.541 68H201.482V75.74H211.147V79.6569H201.482ZM232.135 109.668C227.197 109.668 223.298 108.166 220.438 105.163C217.604 102.168 216.187 97.9888 216.187 92.6238C216.187 87.2677 217.501 83.0122 220.13 79.8574C222.813 76.7025 226.311 75.1251 230.624 75.1251C234.937 75.1251 238.311 76.4976 240.743 79.2424C243.176 81.9962 244.393 85.6145 244.393 90.0972V93.3055H221.413C221.529 97.2001 222.523 100.168 224.394 102.209C226.266 104.249 228.962 105.27 232.482 105.27C236.011 105.27 239.5 104.517 242.949 103.011V107.502C241.211 108.269 239.531 108.821 237.909 109.16C236.288 109.499 234.363 109.668 232.135 109.668ZM221.547 89.1882H238.992C238.992 86.0066 238.284 83.5737 236.867 81.8893C235.441 80.196 233.404 79.3494 230.758 79.3494C228.111 79.3494 225.985 80.2183 224.381 81.9561C222.768 83.6851 221.823 86.0958 221.547 89.1882Z"/>
</svg>
